<svg id="visual" viewBox="0 0 900 600" width="900" height="600" xmlns="http://www.w3.org/2000/svg" xmlns:xlink="http://www.w3.org/1999/xlink" version="1.1"><rect x="0" y="0" width="900" height="600" fill="#fff"></rect><path d="M0 379L21.5 375C43 371 86 363 128.8 350.2C171.7 337.3 214.3 319.7 257.2 324.7C300 329.7 343 357.3 385.8 370.5C428.7 383.7 471.3 382.3 514.2 387.8C557 393.3 600 405.7 642.8 410.7C685.7 415.7 728.3 413.3 771.2 409.5C814 405.7 857 400.3 878.5 397.7L900 395L900 601L878.5 601C857 601 814 601 771.2 601C728.3 601 685.7 601 642.8 601C600 601 557 601 514.2 601C471.3 601 428.7 601 385.8 601C343 601 300 601 257.2 601C214.3 601 171.7 601 128.8 601C86 601 43 601 21.5 601L0 601Z" fill="#eec0f1"></path><path d="M0 442L21.5 436.5C43 431 86 420 128.8 415.7C171.7 411.3 214.3 413.7 257.2 409.3C300 405 343 394 385.8 383.3C428.7 372.7 471.3 362.3 514.2 368.2C557 374 600 396 642.8 399.5C685.7 403 728.3 388 771.2 387.8C814 387.7 857 402.3 878.5 409.7L900 417L900 601L878.5 601C857 601 814 601 771.2 601C728.3 601 685.7 601 642.8 601C600 601 557 601 514.2 601C471.3 601 428.7 601 385.8 601C343 601 300 601 257.2 601C214.3 601 171.7 601 128.8 601C86 601 43 601 21.5 601L0 601Z" fill="#e69fea"></path><path d="M0 410L21.5 414.5C43 419 86 428 128.8 433C171.7 438 214.3 439 257.2 437.8C300 436.7 343 433.3 385.8 438.3C428.7 443.3 471.3 456.7 514.2 460.2C557 463.7 600 457.3 642.8 448.3C685.7 439.3 728.3 427.7 771.2 425.8C814 424 857 432 878.5 436L900 440L900 601L878.5 601C857 601 814 601 771.2 601C728.3 601 685.7 601 642.8 601C600 601 557 601 514.2 601C471.3 601 428.7 601 385.8 601C343 601 300 601 257.2 601C214.3 601 171.7 601 128.8 601C86 601 43 601 21.5 601L0 601Z" fill="#dd7ce3"></path><path d="M0 516L21.5 515.2C43 514.3 86 512.7 128.8 514.5C171.7 516.3 214.3 521.7 257.2 518.8C300 516 343 505 385.8 502.3C428.7 499.7 471.3 505.3 514.2 501.2C557 497 600 483 642.8 480.3C685.7 477.7 728.3 486.3 771.2 492.8C814 499.3 857 503.7 878.5 505.8L900 508L900 601L878.5 601C857 601 814 601 771.2 601C728.3 601 685.7 601 642.8 601C600 601 557 601 514.2 601C471.3 601 428.7 601 385.8 601C343 601 300 601 257.2 601C214.3 601 171.7 601 128.8 601C86 601 43 601 21.5 601L0 601Z" fill="#d355da"></path><path d="M0 561L21.5 562.2C43 563.3 86 565.7 128.8 560.8C171.7 556 214.3 544 257.2 537.2C300 530.3 343 528.7 385.8 527.5C428.7 526.3 471.3 525.7 514.2 530.3C557 535 600 545 642.8 549.5C685.7 554 728.3 553 771.2 551.2C814 549.3 857 546.7 878.5 545.3L900 544L900 601L878.5 601C857 601 814 601 771.2 601C728.3 601 685.7 601 642.8 601C600 601 557 601 514.2 601C471.3 601 428.7 601 385.8 601C343 601 300 601 257.2 601C214.3 601 171.7 601 128.8 601C86 601 43 601 21.5 601L0 601Z" fill="#c916d1"></path></svg>