<svg id="visual" viewBox="0 0 900 600" width="900" height="600" xmlns="http://www.w3.org/2000/svg" xmlns:xlink="http://www.w3.org/1999/xlink" version="1.1"><rect x="0" y="0" width="900" height="600" fill="#fff"></rect><path d="M0 366L21.5 372.5C43 379 86 392 128.8 413.2C171.7 434.3 214.3 463.7 257.2 455.5C300 447.3 343 401.7 385.8 380C428.7 358.3 471.3 360.7 514.2 351.5C557 342.3 600 321.7 642.8 313.2C685.7 304.7 728.3 308.3 771.2 314.7C814 321 857 330 878.5 334.5L900 339L900 0L878.5 0C857 0 814 0 771.2 0C728.3 0 685.7 0 642.8 0C600 0 557 0 514.2 0C471.3 0 428.7 0 385.8 0C343 0 300 0 257.2 0C214.3 0 171.7 0 128.8 0C86 0 43 0 21.5 0L0 0Z" fill="#eec0f1"></path><path d="M0 260L21.5 269.3C43 278.7 86 297.3 128.8 304.5C171.7 311.7 214.3 307.3 257.2 314.5C300 321.7 343 340.3 385.8 358.3C428.7 376.3 471.3 393.7 514.2 384C557 374.3 600 337.7 642.8 331.8C685.7 326 728.3 351 771.2 351.2C814 351.3 857 326.7 878.5 314.3L900 302L900 0L878.5 0C857 0 814 0 771.2 0C728.3 0 685.7 0 642.8 0C600 0 557 0 514.2 0C471.3 0 428.7 0 385.8 0C343 0 300 0 257.2 0C214.3 0 171.7 0 128.8 0C86 0 43 0 21.5 0L0 0Z" fill="#e69fea"></path><path d="M0 314L21.5 306.7C43 299.3 86 284.7 128.8 276.5C171.7 268.3 214.3 266.7 257.2 268.3C300 270 343 275 385.8 266.5C428.7 258 471.3 236 514.2 230.3C557 224.7 600 235.3 642.8 250.2C685.7 265 728.3 284 771.2 287C814 290 857 277 878.5 270.5L900 264L900 0L878.5 0C857 0 814 0 771.2 0C728.3 0 685.7 0 642.8 0C600 0 557 0 514.2 0C471.3 0 428.7 0 385.8 0C343 0 300 0 257.2 0C214.3 0 171.7 0 128.8 0C86 0 43 0 21.5 0L0 0Z" fill="#dd7ce3"></path><path d="M0 138L21.5 139.3C43 140.7 86 143.3 128.8 140.3C171.7 137.3 214.3 128.7 257.2 133.2C300 137.7 343 155.3 385.8 159.7C428.7 164 471.3 155 514.2 162.2C557 169.3 600 192.7 642.8 197C685.7 201.3 728.3 186.7 771.2 175.7C814 164.7 857 157.3 878.5 153.7L900 150L900 0L878.5 0C857 0 814 0 771.2 0C728.3 0 685.7 0 642.8 0C600 0 557 0 514.2 0C471.3 0 428.7 0 385.8 0C343 0 300 0 257.2 0C214.3 0 171.7 0 128.8 0C86 0 43 0 21.5 0L0 0Z" fill="#d355da"></path><path d="M0 63L21.5 61C43 59 86 55 128.8 62.8C171.7 70.7 214.3 90.3 257.2 101.7C300 113 343 116 385.8 118.2C428.7 120.3 471.3 121.7 514.2 114C557 106.3 600 89.7 642.8 82C685.7 74.3 728.3 75.7 771.2 78.5C814 81.3 857 85.7 878.5 87.8L900 90L900 0L878.5 0C857 0 814 0 771.2 0C728.3 0 685.7 0 642.8 0C600 0 557 0 514.2 0C471.3 0 428.7 0 385.8 0C343 0 300 0 257.2 0C214.3 0 171.7 0 128.8 0C86 0 43 0 21.5 0L0 0Z" fill="#c916d1"></path></svg>