<?xml version="1.0" encoding="UTF-8"?>
<!DOCTYPE svg PUBLIC "-//W3C//DTD SVG 1.1//EN" "http://www.w3.org/Graphics/SVG/1.1/DTD/svg11.dtd">
<!-- Creator: CorelDRAW 2018 (64-Bit) -->
<svg xmlns="http://www.w3.org/2000/svg" xml:space="preserve" width="170mm" height="91.071mm" version="1.1" style="shape-rendering:geometricPrecision; text-rendering:geometricPrecision; image-rendering:optimizeQuality; fill-rule:evenodd; clip-rule:evenodd"
viewBox="0 0 17000 9107.1"
 xmlns:xlink="http://www.w3.org/1999/xlink">
 <defs>
  <style type="text/css">
   <![CDATA[
    .str0 {stroke:#FEFEFE;stroke-width:7.62;stroke-miterlimit:22.9256}
    .str1 {stroke:#00A859;stroke-width:7.62;stroke-miterlimit:2.61313}
    .fil1 {fill:none}
    .fil0 {fill:#FEFEFE}
    .fil5 {fill:#00A859}
    .fil4 {fill:url(#id0)}
    .fil2 {fill:url(#id1)}
    .fil3 {fill:url(#id2)}
   ]]>
  </style>
  <linearGradient id="id0" gradientUnits="userSpaceOnUse" x1="9643.97" y1="4471.99" x2="13934.68" y2="4471.99">
   <stop offset="0" style="stop-opacity:1; stop-color:#00A859"/>
   <stop offset="1" style="stop-opacity:1; stop-color:white"/>
  </linearGradient>
  <linearGradient id="id1" gradientUnits="userSpaceOnUse" x1="9643.97" y1="4131.06" x2="3000" y2="4131.06">
   <stop offset="0" style="stop-opacity:1; stop-color:#00A859"/>
   <stop offset="1" style="stop-opacity:1; stop-color:#F0E157"/>
  </linearGradient>
  <linearGradient id="id2" gradientUnits="userSpaceOnUse" xlink:href="#id0" x1="9543.96" y1="3225.51" x2="12022.04" y2="3225.51">
  </linearGradient>
 </defs>
 <g id="Layer_x0020_1">
  <metadata id="CorelCorpID_0Corel-Layer"/>
  <rect class="fil0 str0" x="-0" y="-0.04" width="17000" height="9107.14"/>
  <g id="_2247965261216">
   <path class="fil1 str1" d="M6146.63 2060.09c-96.08,-8.24 -109.86,-6.32 -208.8,-6.32 -1439.4,0 -2575.27,895.87 -2606.26,1999.99 -27.35,974.64 837.06,1798.38 1958.92,1939.08 2467.03,309.41 3529.46,-1778.02 4609.71,-2754.08 1016.92,-918.83 1729.8,-741.71 2069.64,95.84 66.53,91.9 69.46,190.49 8.79,295.77m-5785.03 -1818.11c-117.11,-10.92 -134.83,-8.49 -255.78,-8.49 -1619.31,0 -2842.33,1010.64 -2932.03,2249.98 -165.7,2289.5 3264.41,3467.84 5624.66,1133.79 373.89,-369.74 539.09,-535.71 786.67,-867.61 315.8,-429.98 660.71,-830.6 1014.74,-1070.83 516.9,-350.76 1053.24,-359.6 1546.77,381.27m-5832 -1570.28c3815.24,405.62 5685.95,6755.57 7770.49,1591.88m-7724.6 -1839.83c3890.94,439.77 5851.39,6740.05 7588.77,1466.33 81.99,62.91 197.82,229.74 135.83,373.5"/>
   <path class="fil2" d="M9373.28 3782.66c-932.31,1042.8 -2013.4,2469.72 -4082.79,2210.18 -1121.86,-140.7 -1986.27,-964.44 -1958.92,-1939.08 30.99,-1104.12 1166.86,-1999.99 2606.26,-1999.99 98.94,0 112.72,-1.92 208.8,6.32 1262.37,134.21 2311.86,919.2 3226.65,1722.57zm-6367.49 271.09c-165.7,2289.5 3264.41,3467.84 5624.66,1133.79 373.89,-369.74 539.09,-535.71 786.67,-867.61 74.1,-100.89 149.8,-200.17 226.85,-296.14 -88.93,-80.14 -179.14,-160.72 -270.69,-241.13 57.39,-64.19 114.22,-126.93 170.68,-187.73 -940.11,-814.75 -2034.89,-1633.61 -3350.36,-1782.67 -117.11,-10.92 -134.83,-8.49 -255.78,-8.49 -1619.31,0 -2842.33,1010.64 -2932.03,2249.98z"/>
   <path class="fil3" d="M10431.86 3249.1c516.9,-350.76 1053.24,-359.6 1546.77,381.27 60.67,-105.28 57.74,-203.87 -8.79,-295.77 -339.84,-837.55 -1052.72,-1014.67 -2069.64,-95.84 -118.34,106.92 -236.46,227.18 -356.24,356.17 89.5,77.57 177.61,155.1 264.37,232.02 201.67,-231.53 410.95,-433.61 623.53,-577.85z"/>
   <path class="fil4" d="M13781.29 3278.47c-1093.86,3320.34 -2276.14,2052.78 -3972.96,548.48 -55.39,63.59 -110.21,129.4 -164.36,196.84 1708.07,1539.13 2947.36,2912.33 4273.15,-371.82 61.99,-143.76 -53.84,-310.59 -135.83,-373.5z"/>
   <path class="fil5" d="M9643.97 4023.79c54.15,-67.44 108.97,-133.25 164.36,-196.84 -86.76,-76.91 -174.86,-154.45 -264.37,-232.02 -56.46,60.8 -113.29,123.54 -170.68,187.73 91.55,80.41 181.76,160.99 270.69,241.13z"/>
  </g>
 </g>
</svg>
